<svg width="65" height="72" viewBox="0 0 65 72" fill="none" xmlns="http://www.w3.org/2000/svg">
<path d="M23.6438 13C24.05 13 24.4238 12.8212 24.6838 12.5288L31.0213 5.5575V50.375C31.0213 51.2687 31.6875 52 32.5 52C33.3125 52 33.9788 51.2687 33.9788 50.375V5.54125L40.3163 12.5125C40.5925 12.8212 40.95 13 41.3563 13C42.1688 13 42.835 12.2688 42.835 11.375C42.835 10.92 42.6725 10.5138 42.3963 10.2212L33.54 0.47125C33.28 0.17875 32.9063 0 32.5 0C32.0938 0 31.72 0.17875 31.46 0.47125L22.6038 10.2212C22.3275 10.5138 22.165 10.92 22.165 11.375C22.165 12.2688 22.815 13 23.6438 13ZM62.0425 16.25H38.415C37.6025 16.25 36.9363 16.9813 36.9363 17.875C36.9363 18.7687 37.6025 19.5 38.415 19.5H62.0588V26H38.415C37.6025 26 36.9363 26.7313 36.9363 27.625C36.9363 28.5187 37.6025 29.25 38.415 29.25H56.1438V68.25H8.85625V29.25H26.585C27.3975 29.25 28.0638 28.5187 28.0638 27.625C28.0638 26.7313 27.3975 26 26.585 26H2.9575V19.5H26.6013C27.4138 19.5 28.08 18.7687 28.08 17.875C28.08 16.9813 27.4138 16.25 26.6013 16.25H2.9575C1.31625 16.25 0 17.7125 0 19.5V26C0 27.7875 1.31625 29.25 2.9575 29.25H5.915V68.25C5.915 70.0375 7.23125 71.5 8.8725 71.5H56.1438C57.7688 71.5 59.1013 70.0375 59.1013 68.25V29.25H62.0588C63.6838 29.25 65.0163 27.7875 65.0163 26V19.5C65 17.7125 63.6838 16.25 62.0425 16.25Z" fill="#272727"/>
</svg>
