<svg width="75" height="75" viewBox="0 0 75 75" fill="none" xmlns="http://www.w3.org/2000/svg">
<path d="M70.3125 57.4219H69.1406V35.1562C69.1406 34.5094 68.6168 33.9844 67.9688 33.9844H56.25V11.7188C56.25 11.0719 55.7262 10.5469 55.0781 10.5469H29.2969C28.6488 10.5469 28.125 11.0719 28.125 11.7188V33.9844H17.5781V4.6875C17.5781 2.74922 16.0008 1.17188 14.0625 1.17188H4.6875C2.74922 1.17188 1.17188 2.74922 1.17188 4.6875C1.17188 6.62578 2.74922 8.20312 4.6875 8.20312H10.5469V60.9375C10.5469 62.8758 12.1242 64.4531 14.0625 64.4531H17.6086C16.8645 65.4352 16.4062 66.6445 16.4062 67.9688C16.4062 71.1996 19.0348 73.8281 22.2656 73.8281C25.4965 73.8281 28.125 71.1996 28.125 67.9688C28.125 66.6445 27.6668 65.4352 26.9227 64.4531H55.1074C54.3645 65.4352 53.9062 66.6445 53.9062 67.9688C53.9062 71.1996 56.5348 73.8281 59.7656 73.8281C62.9965 73.8281 65.625 71.1996 65.625 67.9688C65.625 66.6445 65.1668 65.4352 64.4227 64.4531H70.3125C72.2508 64.4531 73.8281 62.8758 73.8281 60.9375C73.8281 58.9992 72.2508 57.4219 70.3125 57.4219ZM66.7969 57.4219H43.3594V36.3281H51.5625V44.5312C51.5625 45.1793 52.0863 45.7031 52.7344 45.7031H57.4219C58.0699 45.7031 58.5938 45.1793 58.5938 44.5312V36.3281H66.7969V57.4219ZM56.25 36.3281V43.3594H53.9062V36.3281H56.25ZM41.0156 12.8906H43.3594V19.9219H41.0156V12.8906ZM30.4688 33.9844V12.8906H38.6719V21.0938C38.6719 21.7406 39.1957 22.2656 39.8438 22.2656H44.5312C45.1793 22.2656 45.7031 21.7406 45.7031 21.0938V12.8906H53.9062V33.9844H30.4688ZM30.4688 36.3281V43.3594H28.125V36.3281H30.4688ZM25.7812 36.3281V44.5312C25.7812 45.1793 26.3051 45.7031 26.9531 45.7031H31.6406C32.2887 45.7031 32.8125 45.1793 32.8125 44.5312V36.3281H41.0156V57.4219H17.5781V36.3281H25.7812ZM25.7812 67.9688C25.7812 69.907 24.2039 71.4844 22.2656 71.4844C20.3273 71.4844 18.75 69.907 18.75 67.9688C18.75 66.0305 20.3273 64.4531 22.2656 64.4531C24.2039 64.4531 25.7812 66.0305 25.7812 67.9688ZM63.2812 67.9688C63.2812 69.907 61.7039 71.4844 59.7656 71.4844C57.8273 71.4844 56.25 69.907 56.25 67.9688C56.25 66.0305 57.8273 64.4531 59.7656 64.4531C61.7039 64.4531 63.2812 66.0305 63.2812 67.9688ZM70.3125 62.1094H14.0625C13.4156 62.1094 12.8906 61.5844 12.8906 60.9375V7.03125C12.8906 6.38438 12.3668 5.85938 11.7188 5.85938H4.6875C4.04063 5.85938 3.51562 5.3332 3.51562 4.6875C3.51562 4.0418 4.04063 3.51562 4.6875 3.51562H14.0625C14.7094 3.51562 15.2344 4.0418 15.2344 4.6875V58.5938C15.2344 59.2418 15.7582 59.7656 16.4062 59.7656H70.3125C70.9594 59.7656 71.4844 60.2906 71.4844 60.9375C71.4844 61.5844 70.9594 62.1094 70.3125 62.1094Z" fill="#272727"/>
<path d="M33.9844 52.7344H38.6719V55.0781H33.9844V52.7344Z" fill="#272727"/>
<path d="M33.9844 48.0469H38.6719V50.3906H33.9844V48.0469Z" fill="#272727"/>
<path d="M59.7656 52.7344H64.4531V55.0781H59.7656V52.7344Z" fill="#272727"/>
<path d="M59.7656 48.0469H64.4531V50.3906H59.7656V48.0469Z" fill="#272727"/>
<path d="M46.875 29.2969H51.5625V31.6406H46.875V29.2969Z" fill="#272727"/>
<path d="M46.875 24.6094H51.5625V26.9531H46.875V24.6094Z" fill="#272727"/>
</svg>
