<svg width="65" height="65" viewBox="0 0 65 65" fill="none" xmlns="http://www.w3.org/2000/svg">
<g clip-path="url(#clip0_160_1851)">
<path d="M32.4705 40.7284L18.7614 27.0193C18.5102 26.7534 18.1409 26.5909 17.7273 26.5909C16.9148 26.5909 16.25 27.2557 16.25 28.0682C16.25 28.4818 16.4125 28.8511 16.6784 29.117L31.4511 43.8898C31.717 44.1557 32.0864 44.3182 32.5 44.3182C32.9284 44.3182 33.2977 44.1409 33.5636 43.8602L58.2341 18.0227C58.2341 18.0227 58.2341 18.0227 58.2341 18.0375L60.3466 15.8216L64.5864 11.375C64.8375 11.0943 65 10.7398 65 10.3409C65 9.52841 64.3352 8.86364 63.5227 8.86364C63.0943 8.86364 62.725 9.04091 62.4591 9.32159L58.6625 13.2955C58.6625 13.2955 58.6625 13.2807 58.6477 13.2807L56.5943 15.4375V15.4523L32.4705 40.7284ZM62.3852 20.0466C61.8091 19.4705 60.8636 19.4852 60.3023 20.0614C59.8886 20.475 59.8 21.0659 59.9773 21.583L59.9477 21.5977C61.2773 24.9659 62.0455 28.6443 62.0455 32.5C62.0455 48.8239 48.8239 62.0455 32.5 62.0455C16.1909 62.0455 2.95455 48.8239 2.95455 32.5C2.95455 16.1761 16.1909 2.95455 32.5 2.95455C40.8466 2.95455 48.3807 6.42614 53.7432 11.9955L53.758 11.9807C54.3489 12.5125 55.2352 12.4977 55.7966 11.9216C56.3727 11.3455 56.358 10.4 55.7818 9.83864C55.7227 9.77955 55.6489 9.76477 55.5898 9.72045C49.7102 3.7375 41.5557 0 32.5 0C14.5511 0 0 14.5511 0 32.5C0 50.4489 14.5511 65 32.5 65C50.4489 65 65 50.4489 65 32.5C65 28.3193 64.1875 24.3455 62.7398 20.667C62.6807 20.4455 62.5773 20.2239 62.3852 20.0466Z" fill="#272727"/>
</g>
<defs>
<clipPath id="clip0_160_1851">
<rect width="65" height="65" fill="white"/>
</clipPath>
</defs>
</svg>
