<svg width="65" height="65" viewBox="0 0 65 65" fill="none" xmlns="http://www.w3.org/2000/svg">
<g clip-path="url(#clip0_181_201)">
<path d="M36.9318 23.6364C38.5568 23.6364 39.8864 22.3068 39.8864 20.6818C39.8864 19.0568 38.5568 17.7273 36.9318 17.7273C35.3068 17.7273 33.9773 19.0568 33.9773 20.6818C33.9773 22.3068 35.3068 23.6364 36.9318 23.6364ZM11.8182 47.2727C13.4432 47.2727 14.7727 45.958 14.7727 44.3182C14.7727 42.6932 13.4432 41.3636 11.8182 41.3636C10.1932 41.3636 8.86364 42.6932 8.86364 44.3182C8.86364 45.958 10.1932 47.2727 11.8182 47.2727ZM31.4955 25.025L30.0034 22.4693C28.9545 23.0898 28.1716 23.8727 27.4773 24.6261L29.6636 26.6205C30.2841 25.9557 30.8307 25.4239 31.4955 25.025ZM15.0534 36.6659L12.6159 34.9966C11.9511 35.9568 11.4636 36.9761 11.1682 38.025L14.0045 38.8375C14.2261 38.0989 14.5807 37.375 15.0534 36.6659ZM18.8648 33.1648L17.2693 30.683C16.3386 31.2739 15.5114 31.9091 14.7727 32.5739L16.7523 34.7602C17.3727 34.2136 18.0818 33.6818 18.8648 33.1648ZM49.4591 27.9057L49.7102 28.2011L51.9705 26.2955L51.7045 26C51.1875 25.3943 50.6705 24.7886 50.183 24.1239L47.8193 25.8966C48.3511 26.6057 48.8977 27.2557 49.4591 27.9057ZM63.9216 5.98295L63.9364 5.95341L43.2545 0.0443182L43.2398 0.0738636C43.1068 0.0443182 42.9886 0 42.8409 0C42.6932 0 42.575 0.0443182 42.442 0.0738636V0.0443182L22.1591 5.85L1.89091 0.0590909L1.87614 0.0738636C1.74318 0.0443182 1.625 0 1.47727 0C0.664773 0 0 0.664773 0 1.47727V57.6136C0 58.2932 0.457955 58.8398 1.07841 59.017L1.06364 59.0466L21.7455 64.9557L21.7602 64.9261C21.8932 64.9557 22.0114 65 22.1591 65C22.3068 65 22.425 64.9557 22.558 64.9261L22.5727 64.9557L42.8409 59.15L63.1239 64.9409V64.9114C63.2568 64.9557 63.375 65 63.5227 65C64.3352 65 65 64.3352 65 63.5227V7.38636C65 6.70682 64.542 6.16023 63.9216 5.98295ZM20.6818 61.558L2.95455 56.5057V3.44205L20.6818 8.50909V61.558ZM41.3636 56.5057L23.6364 61.5727V28.1273L24.8182 30.683C25.8227 30.225 26.7239 29.6193 27.5807 28.8216L25.5864 26.65C24.9659 27.2261 24.3307 27.6398 23.6364 27.9795V8.49432L41.3636 3.42727V56.5057ZM62.0455 61.558L44.3182 56.4909V23.1636C44.983 23.4739 45.6034 23.8136 46.1057 24.1682L47.8193 21.7602C47.0216 21.1841 46.0761 20.667 45.0125 20.2239L44.3182 21.8489V3.44205L62.0455 8.50909V61.558ZM52.7534 41.792C52.4875 41.5261 52.1182 41.3636 51.7045 41.3636C50.892 41.3636 50.2273 42.0284 50.2273 42.8409C50.2273 43.2545 50.3898 43.6239 50.6557 43.8898L52.5761 45.7955L50.6705 47.7011C50.3898 47.967 50.2273 48.3364 50.2273 48.75C50.2273 49.5625 50.892 50.2273 51.7045 50.2273C52.1182 50.2273 52.4875 50.0648 52.7534 49.7989L54.6591 47.8784L56.5648 49.7841C56.8307 50.0648 57.2 50.2273 57.6136 50.2273C58.4261 50.2273 59.0909 49.5625 59.0909 48.75C59.0909 48.3364 58.9284 47.967 58.6625 47.7011L56.742 45.7955L58.6477 43.8898C58.9284 43.6239 59.0909 43.2545 59.0909 42.8409C59.0909 42.0284 58.4261 41.3636 57.6136 41.3636C57.2 41.3636 56.8307 41.5261 56.5648 41.792L54.6591 43.7125L52.7534 41.792ZM52.4875 32.6034L55.2795 31.658C54.9398 30.6534 54.467 29.6932 53.8318 28.733L51.3648 30.358C51.867 31.1114 52.2364 31.85 52.4875 32.6034ZM52.7977 37.6409L55.7227 38.0545C55.8852 36.9466 55.9296 35.883 55.8852 34.8932L52.9307 35.0409C52.975 35.8386 52.9307 36.7102 52.7977 37.6409Z" fill="#272727"/>
</g>
<defs>
<clipPath id="clip0_181_201">
<rect width="65" height="65" fill="white"/>
</clipPath>
</defs>
</svg>
