<svg width="65" height="65" viewBox="0 0 65 65" fill="none" xmlns="http://www.w3.org/2000/svg">
<g clip-path="url(#clip0_160_1843)">
<path d="M32.5 0C14.5511 0 0 14.5511 0 32.5C0 50.4489 14.5511 65 32.5 65C50.4489 65 65 50.4489 65 32.5C65 14.5511 50.4489 0 32.5 0ZM32.5 62.0455C25.542 62.0455 19.175 59.6227 14.1227 55.6045C16.1318 52.975 20.15 50.1091 23.6807 48.9568C25.808 48.2625 27.0489 47.2136 27.3443 45.8398C27.7284 44.1114 26.3989 42.8261 26.2511 42.6784C25.867 42.3239 25.3057 42.2057 24.8034 42.3534C24.6852 42.383 22.2773 43.0625 18.3182 41.2602C19.5148 39.192 20.5341 34.9523 20.5341 26.4875C20.5341 12.9261 26.5614 11.8034 33.2682 11.8034C37.9511 11.8034 44.1705 13.3989 44.1705 27.2261C44.1705 35.0852 45.4114 39 46.6375 40.9648C44.9682 41.6 42.3091 42.3386 39.4136 42.1023C38.7636 42.0432 38.1875 42.3977 37.9364 42.9739C37.375 44.2295 37.3455 47.0807 41.1716 48.7943C44.1705 50.1386 47.8193 52.1477 50.7 55.7227C45.692 59.6818 39.3693 62.0455 32.5 62.0455ZM52.9455 53.8023C49.6955 49.7989 45.6773 47.583 42.383 46.1057C41.6591 45.7807 41.1864 45.4261 40.9205 45.1011C45.8545 45.0125 49.725 42.8409 49.9023 42.7375C50.4045 42.442 50.7 41.8807 50.6409 41.3045C50.5818 40.7727 50.242 40.3148 49.7545 40.108C49.5477 39.9602 47.1398 38.0102 47.1398 27.2409C47.1398 15.0386 42.4716 8.86364 33.283 8.86364C25.5273 8.86364 17.5943 10.9614 17.5943 26.5023C17.5943 37.7886 15.7182 39.9602 15.4227 40.2261C14.9205 40.3739 14.5364 40.7727 14.4034 41.3045C14.2557 41.9398 14.5364 42.6045 15.0977 42.9295C19.2489 45.3375 22.5136 45.5591 24.2716 45.4261C24.0648 45.6034 23.6216 45.8841 22.7648 46.1648C18.6875 47.4943 14.3443 50.5966 11.9216 53.6841C6.39659 48.3068 2.95455 40.8023 2.95455 32.5C2.95455 16.1761 16.1761 2.95455 32.5 2.95455C48.8239 2.95455 62.0455 16.1761 62.0455 32.5C62.0455 40.8761 58.5443 48.425 52.9455 53.8023Z" fill="#272727"/>
</g>
<defs>
<clipPath id="clip0_160_1843">
<rect width="65" height="65" fill="white"/>
</clipPath>
</defs>
</svg>
