<svg width="65" height="65" viewBox="0 0 65 65" fill="none" xmlns="http://www.w3.org/2000/svg">
<g clip-path="url(#clip0_162_1922)">
<path d="M65 19.2045C65 18.8795 64.8671 18.5841 64.6898 18.333L64.7045 18.3182L64.6159 18.2295C64.5864 18.1852 64.542 18.1557 64.4977 18.1114L46.9773 0.590909L46.9625 0.605682C46.6818 0.251136 46.283 0 45.7955 0H19.2045C18.717 0 18.3182 0.251136 18.0375 0.605682L18.0227 0.590909L0.502273 18.1114C0.457955 18.1409 0.428409 18.1852 0.384091 18.2295L0.295455 18.3182L0.310227 18.333C0.132955 18.5841 0 18.8795 0 19.2045C0 19.5591 0.132955 19.8693 0.339773 20.1205L0.325 20.1352L31.3477 64.4534L31.3625 64.4386C31.6432 64.7784 32.042 65 32.5 65C32.958 65 33.3568 64.7784 33.6375 64.4386L33.6523 64.4534L64.675 20.1352L64.6602 20.1205C64.8671 19.8693 65 19.5591 65 19.2045ZM45.2045 2.95455L59.9773 17.7273H46.6966L39.3102 2.95455H45.2045ZM36.0307 2.95455L43.417 17.7273H21.583L28.9693 2.95455H36.0307ZM19.7955 2.95455H25.6898L18.3034 17.7273H5.02273L19.7955 2.95455ZM4.31364 20.6818H18.1114L28.4523 55.1761L4.31364 20.6818ZM32.5 58.3818L21.1841 20.6818H43.8011L32.5 58.3818ZM36.5477 55.1761L46.8886 20.6818H60.6864L36.5477 55.1761Z" fill="#272727"/>
</g>
<defs>
<clipPath id="clip0_162_1922">
<rect width="65" height="65" fill="white"/>
</clipPath>
</defs>
</svg>
