<svg width="58" height="58" viewBox="0 0 58 58" fill="none" xmlns="http://www.w3.org/2000/svg">
<g clip-path="url(#clip0_183_178)">
<path d="M31.6424 2.63576C44.7421 2.63576 55.3642 13.2579 55.3642 26.3576C55.3642 27.0825 55.9573 27.6755 56.6821 27.6755C57.407 27.6755 58 27.0825 58 26.3576C58 11.795 46.205 0 31.6424 0C30.9175 0 30.3245 0.593047 30.3245 1.31788C30.3245 2.04272 30.9175 2.63576 31.6424 2.63576ZM31.6424 15.8146C37.4674 15.8146 42.1854 20.5326 42.1854 26.3576C42.1854 27.0825 42.7785 27.6755 43.5033 27.6755C44.2281 27.6755 44.8212 27.0825 44.8212 26.3576C44.8212 19.0829 38.9171 13.1788 31.6424 13.1788C30.9175 13.1788 30.3245 13.7719 30.3245 14.4967C30.3245 15.2215 30.9175 15.8146 31.6424 15.8146ZM31.6424 28.9934C33.092 28.9934 34.2781 27.8073 34.2781 26.3576C34.2781 24.8948 33.092 23.7219 31.6424 23.7219C30.1927 23.7219 29.0066 24.908 29.0066 26.3576C29.0066 27.8073 30.1927 28.9934 31.6424 28.9934ZM57.9605 46.0995C57.9605 45.0057 57.5124 44.0173 56.8007 43.3056C56.5899 43.0948 56.3526 42.9234 56.1022 42.7521L44.9398 34.0804C44.2281 33.3688 43.2397 32.9207 42.1459 32.9207C41.2497 32.9207 40.4326 33.2238 39.7737 33.7378L36.6635 36.8743L36.6503 36.8612C36.1627 37.4015 35.4774 37.7442 34.6998 37.7442C33.8037 37.7442 33.0261 37.2961 32.5517 36.624C32.5385 36.6503 32.5122 36.6767 32.499 36.703C28.1895 33.5796 24.3808 29.8105 21.2574 25.501C21.2838 25.4747 21.3102 25.4615 21.3497 25.4351C20.6644 24.9607 20.2163 24.1568 20.2163 23.2606C20.2163 22.4567 20.5853 21.7451 21.152 21.2574L24.249 18.1868C24.7367 17.5278 25.0398 16.7107 25.0398 15.8146C25.0398 14.7207 24.5917 13.7323 23.88 13.0207L15.1952 1.85821C15.037 1.60782 14.8525 1.3706 14.6549 1.15974C13.9432 0.44808 12.9548 0 11.8609 0C6.58941 0 0 6.19405 0 13.8378C0 15.9596 0.487616 17.9496 1.34424 19.7419L1.3047 19.7814C9.22518 35.5828 22.404 48.7617 38.1922 56.6953L38.2318 56.6558C40.0373 57.4992 42.0273 57.9868 44.1491 57.9868C51.7928 57.9868 57.9868 51.3974 57.9868 46.1259C57.9868 46.1259 57.9868 46.1127 57.9868 46.0995H57.9605ZM44.1491 55.3511C42.5017 55.3511 40.8939 54.9821 39.3651 54.2704C39.2202 54.2045 39.0752 54.1518 38.9302 54.1123C23.9459 46.4685 11.5315 34.0541 3.88775 19.0698C3.84822 18.9116 3.7955 18.7666 3.71643 18.6217C3.00477 17.0929 2.63576 15.4851 2.63576 13.8378C2.63576 7.44604 8.23676 2.63576 11.8609 2.63576C12.3354 2.63576 12.6517 2.87298 12.7966 3.01795C12.8362 3.05749 12.8889 3.12338 12.9811 3.25517C13.0339 3.33424 13.0734 3.40014 13.1261 3.46603L21.7978 14.6285C21.8637 14.7207 21.9427 14.7998 22.0086 14.8789C22.1668 15.0239 22.404 15.3402 22.404 15.8146C22.404 16.0518 22.3381 16.2627 22.2063 16.4735L19.2674 19.3861C19.2543 19.3992 19.2411 19.4124 19.2279 19.4256C18.1604 20.4272 17.5542 21.811 17.5542 23.2738C17.5542 24.6312 18.0813 25.9359 19.0039 26.9112C19.0302 26.9639 19.0698 27.0166 19.1093 27.0693C22.3513 31.5501 26.3313 35.5169 30.9439 38.8512C30.9834 38.8775 31.0098 38.9039 31.0493 38.9302C32.0245 39.8659 33.3292 40.4063 34.6998 40.4063C36.0704 40.4063 37.4015 39.8528 38.3899 38.8907C38.4426 38.8512 38.4953 38.7985 38.5349 38.7457L41.4869 35.7673C41.6978 35.6355 41.9087 35.5696 42.1459 35.5696C42.6203 35.5696 42.9366 35.8069 43.0816 35.9518C43.1606 36.0309 43.2397 36.0968 43.332 36.1759L54.4944 44.8475C54.5603 44.9003 54.6394 44.953 54.7185 45.0057C54.8634 45.0979 54.9162 45.1507 54.9557 45.177C55.1007 45.322 55.3379 45.6383 55.3379 46.1127C55.3379 46.205 55.3379 46.284 55.3511 46.3763C55.1402 50.0005 50.3958 55.3511 44.1491 55.3511Z" fill="#272727"/>
</g>
<defs>
<clipPath id="clip0_183_178">
<rect width="58" height="57.9868" fill="white"/>
</clipPath>
</defs>
</svg>
