<svg width="58" height="58" viewBox="0 0 58 58" fill="none" xmlns="http://www.w3.org/2000/svg">
<g clip-path="url(#clip0_183_246)">
<path d="M57.6177 47.8368L43.3418 33.5345C45.3059 31.465 45.2795 28.2091 43.2627 26.1923L34.2727 17.1891C34.2727 17.1759 34.2727 17.1495 34.2727 17.1364C34.2727 7.67182 26.6009 0 17.1364 0C7.67182 0 0 7.67182 0 17.1364C0 26.6009 7.67182 34.2727 17.1364 34.2727C17.1495 34.2727 17.1759 34.2727 17.1891 34.2727L26.1791 43.2627C28.2223 45.3059 31.5045 45.3191 33.5609 43.3155L37.2782 47.0723C37.5286 47.3095 37.8582 47.4545 38.2273 47.4545H42.1818V51.4091C42.1818 52.1341 42.775 52.7273 43.5 52.7273H47.4545V56.6818C47.4545 57.4068 48.0477 58 48.7727 58H56.6818C57.4068 58 58 57.4068 58 56.6818V48.7727C58 48.4036 57.855 48.0741 57.6177 47.8368ZM14.3418 31.3464C7.67182 30.0414 2.63636 24.1886 2.63636 17.1364C2.63636 9.135 9.12182 2.63636 17.1364 2.63636C24.2018 2.63636 30.0677 7.685 31.3595 14.3682C29.29 12.6809 26.245 12.7732 24.3205 14.6977L14.6977 24.3205C12.7732 26.245 12.6677 29.2768 14.3418 31.3464ZM55.3636 55.3636H50.0909V51.4091C50.0909 50.6841 49.4977 50.0909 48.7727 50.0909H44.8182V46.1364C44.8182 45.4114 44.225 44.8182 43.5 44.8182H38.7809L34.51 40.5077C34.2727 40.2705 33.9432 40.1255 33.5741 40.1255C33.1786 40.1255 32.8359 40.31 32.5986 40.5868L31.7814 41.4041C30.7532 42.4323 29.0923 42.4323 28.0509 41.4041L16.5564 29.9227C15.5282 28.8945 15.5282 27.2205 16.5564 26.1923L26.1791 16.5695C27.2073 15.5414 28.8814 15.5414 29.9095 16.5695L31.5836 18.2436C31.4123 20.445 30.7664 22.5145 29.725 24.3205C29.1318 23.9514 28.4332 23.7273 27.6818 23.7273C25.4936 23.7273 23.7273 25.4936 23.7273 27.6818C23.7273 29.87 25.4936 31.6364 27.6818 31.6364C29.87 31.6364 31.6364 29.87 31.6364 27.6818C31.6364 27.2732 31.5573 26.8777 31.4386 26.5086C32.6118 24.7291 33.4686 22.7255 33.9168 20.5636L41.4041 28.0509C42.4323 29.0791 42.4323 30.74 41.4041 31.7814L40.6264 32.5591C40.3495 32.7964 40.165 33.1391 40.165 33.5345C40.165 33.9036 40.31 34.2332 40.5473 34.4705L55.3636 49.3132V55.3636ZM29 27.6818C29 28.4068 28.4068 29 27.6818 29C26.9568 29 26.3636 28.4068 26.3636 27.6818C26.3636 26.9568 26.9568 26.3636 27.6818 26.3636C28.4068 26.3636 29 26.9568 29 27.6818Z" fill="#272727"/>
</g>
<defs>
<clipPath id="clip0_183_246">
<rect width="58" height="58" fill="white"/>
</clipPath>
</defs>
</svg>
