<svg width="58" height="58" viewBox="0 0 58 58" fill="none" xmlns="http://www.w3.org/2000/svg">
<g clip-path="url(#clip0_183_199)">
<path d="M29 0C12.9841 0 0 12.9841 0 29C0 45.0159 12.9841 58 29 58C45.0159 58 58 45.0159 58 29C58 12.9841 45.0159 0 29 0ZM29 55.3636C22.4355 55.3636 16.4509 52.9514 11.8373 48.9836C15.3964 45.8727 17.0836 45.0291 21.0118 43.2891C25.5595 41.2855 27.1018 37.7264 25.2564 33.5345C24.9268 32.7832 24.5445 32.0845 24.1359 31.3464C22.7386 28.8155 21.1041 25.955 21.1041 19.4036C21.1041 11.6527 24.7818 11.6 27.7082 11.5473C29.7777 11.5077 30.7927 11.1518 31.61 10.8618C32.1505 10.6641 32.48 10.5586 33.0732 10.5586C35.5118 10.5586 38.2141 12.9709 38.2141 19.7332C38.2141 26.5482 37.1859 28.2355 35.6305 31.0168C35.2218 31.7418 34.7736 32.5459 34.3123 33.495C33.4027 35.3405 33.2182 37.0673 33.7586 38.6227C34.4573 40.6264 36.2764 42.2609 39.4795 43.7768C42.1027 45.0159 44.8577 47.4414 46.3341 48.8386C41.6809 52.8855 35.6436 55.3636 29 55.3636ZM48.2191 47.0064C46.6373 45.5036 43.6055 42.8145 40.5868 41.3909C38.0955 40.2177 36.6718 39.0182 36.2236 37.7527C35.9205 36.8695 36.0523 35.8545 36.6455 34.655C37.0936 33.7455 37.5155 32.9941 37.9109 32.3086C39.5586 29.3691 40.8241 27.2468 40.8241 19.7464C40.8241 8.50227 34.3386 7.93545 33.0468 7.93545C31.9923 7.93545 31.3332 8.17273 30.7005 8.39682C30.0018 8.64727 29.2768 8.89773 27.6423 8.92409C24.6764 8.96364 18.4545 9.06909 18.4545 19.4036C18.4545 26.6405 20.3395 29.9623 21.8159 32.625C22.1982 33.3105 22.5541 33.9564 22.8309 34.6023C24.0964 37.4627 23.1736 39.4532 19.9309 40.89C15.8445 42.6959 13.92 43.6318 9.91273 47.1645C5.41773 42.4323 2.63636 36.0391 2.63636 29C2.63636 14.4341 14.4341 2.63636 29 2.63636C43.5659 2.63636 55.3636 14.4341 55.3636 29C55.3636 35.9732 52.635 42.2873 48.2191 47.0064Z" fill="#272727"/>
</g>
<defs>
<clipPath id="clip0_183_199">
<rect width="58" height="58" fill="white"/>
</clipPath>
</defs>
</svg>
