<svg width="58" height="58" viewBox="0 0 58 58" fill="none" xmlns="http://www.w3.org/2000/svg">
<g clip-path="url(#clip0_183_203)">
<path d="M52.7273 0H5.27273C2.35955 0 0 2.35955 0 5.27273V52.7273C0 55.6405 2.35955 58 5.27273 58H52.7273C55.6405 58 58 55.6405 58 52.7273V5.27273C58 2.35955 55.6405 0 52.7273 0ZM2.63636 5.27273C2.63636 3.82273 3.82273 2.63636 5.27273 2.63636H11.7714C11.1782 7.40818 7.40818 11.1782 2.63636 11.7714V5.27273ZM2.63636 14.4341C8.85818 13.8145 13.8145 8.85818 14.4341 2.63636H27.6818V4.57409C27.6686 4.57409 27.6686 4.58727 27.6555 4.58727L24.9532 5.25955C24.0173 5.49682 23.2923 6.20864 23.0418 7.13136C22.5277 9.02955 21.7764 10.8486 20.7877 12.5491C20.3 13.3795 20.3132 14.4077 20.8009 15.225L22.2509 17.6373L17.6505 22.2377C17.6373 22.2377 17.6373 22.2245 17.6241 22.2245L15.2118 20.7877C14.79 20.5373 14.3286 20.4055 13.8541 20.4055C13.4059 20.4055 12.9445 20.5241 12.5359 20.7614C10.8355 21.75 9.01636 22.5014 7.13136 23.0023C6.20864 23.2527 5.48364 23.9777 5.25955 24.9136L4.57409 27.6291C4.57409 27.6423 4.57409 27.6423 4.56091 27.6555H2.63636V14.4341ZM46.1364 55.3636H36.9355C35.2745 53.1623 34.2727 50.4336 34.2727 47.4545C34.2727 45.5959 34.655 43.8427 35.3536 42.2345L42.3664 46.1364C42.2609 46.5582 42.1818 46.9932 42.1818 47.4545C42.1818 49.9064 43.8691 51.9495 46.1364 52.5427V55.3636ZM44.8182 47.4545C44.8182 46.0045 46.0045 44.8182 47.4545 44.8182C48.9045 44.8182 50.0909 46.0045 50.0909 47.4545C50.0909 48.9045 48.9045 50.0909 47.4545 50.0909C46.0045 50.0909 44.8182 48.9045 44.8182 47.4545ZM55.3636 52.7273C55.3636 54.1773 54.1773 55.3636 52.7273 55.3636H48.7727V52.5427C51.04 51.9495 52.7273 49.9064 52.7273 47.4545C52.7273 46.9932 52.6482 46.5582 52.5427 46.1364L55.3636 44.5677V52.7273ZM55.3636 41.5491L51.2641 43.8295C50.3018 42.8145 48.9573 42.1818 47.4545 42.1818C45.9518 42.1818 44.6073 42.8145 43.645 43.8295L36.6323 39.9409C39.0182 36.5136 42.9727 34.2727 47.4545 34.2727C50.4336 34.2727 53.1623 35.2877 55.3636 36.9618V41.5491ZM55.3636 33.8114C53.0305 32.4536 50.3545 31.6364 47.4545 31.6364C38.715 31.6364 31.6364 38.715 31.6364 47.4545C31.6364 50.3545 32.4536 53.0305 33.8114 55.3636H22.2773L21.1436 51.1323L23.6086 49.7614C24.4523 49.3 24.9664 48.4036 24.9664 47.4545C24.9664 45.4905 25.2168 43.5264 25.7309 41.6282C25.9814 40.7055 25.7045 39.7168 25.0191 39.0445L23.0155 37.1068C23.0023 37.1068 23.0023 37.0936 22.9891 37.0805L26.245 31.4386L28.9473 32.2164C29.87 32.48 30.8586 32.2164 31.5309 31.5441C32.915 30.16 34.4836 28.9605 36.1973 27.9718C37.0277 27.4973 37.5418 26.6009 37.5155 25.6386L37.4759 22.8441V22.8177L43.7636 21.1305L45.1345 23.6086C45.3718 24.0305 45.7146 24.3732 46.1232 24.6105C46.5186 24.8345 46.9668 24.9664 47.4414 24.9664C49.4055 24.9664 51.3564 25.2168 53.2414 25.7309C53.9664 25.9286 54.7177 25.7836 55.3373 25.4014V33.8114H55.3636ZM55.3636 21.7368L53.9532 23.2C51.8177 22.62 49.6295 22.3432 47.4677 22.3432L46.0573 19.8123C45.7936 19.3377 45.4114 18.8895 44.9632 18.6259C44.5809 18.4018 44.1591 18.3227 43.6977 18.4414L36.2236 20.445C35.1955 20.7218 34.9055 21.8159 34.8527 22.8177L34.9055 25.7045C33.0205 26.7855 31.2673 28.1168 29.6855 29.6986L26.9173 28.9077C25.9814 28.6441 24.8082 28.6968 24.2809 29.6195L20.4186 36.3159C19.8914 37.2386 20.4582 38.2273 21.1305 38.9523L23.2 40.9559C22.62 43.1045 22.3432 45.2927 22.3564 47.4677L19.8386 48.865C18.9818 49.3395 18.1909 50.1964 18.4677 51.2377L19.5486 55.3636H5.27273C3.82273 55.3636 2.63636 54.1773 2.63636 52.7273V30.3182H5.18045C6.24818 30.3182 6.815 29.3295 7.11818 28.3805L7.81682 25.5727C9.95227 25.0059 11.9823 24.1491 13.8673 23.0682L16.3586 24.5577C16.8595 24.8082 17.4132 25.0191 17.9405 25.0191C18.3623 25.0191 18.7577 24.8873 19.0873 24.5577L24.5577 19.0873C25.3091 18.3359 25.0586 17.1891 24.5577 16.3586L23.0682 13.8805C24.1623 11.9955 25.0191 9.96546 25.5859 7.81682L28.3805 7.11818C29.3295 6.815 30.3182 6.24818 30.3182 5.18045V2.63636H52.7273C54.1773 2.63636 55.3636 3.82273 55.3636 5.27273V21.7368Z" fill="#272727"/>
</g>
<defs>
<clipPath id="clip0_183_203">
<rect width="58" height="58" fill="white"/>
</clipPath>
</defs>
</svg>
