<svg width="58" height="48" viewBox="0 0 58 48" fill="none" xmlns="http://www.w3.org/2000/svg">
<path d="M58 20.0899C58 17.3199 55.7381 15.0674 52.9565 15.0674H34.0435V8.90213C34.0435 6.99234 33.5897 5.07887 32.7321 3.37018C31.688 1.29056 29.5916 0 27.2577 0H25.2174C24.5217 0 23.9565 0.560981 23.9565 1.25562V15.8031L22.1736 17.5786H15.1304V16.323C15.1304 15.6284 14.5653 15.0674 13.8696 15.0674H1.26087C0.565175 15.0674 0 15.6284 0 16.323V46.4578C0 47.1525 0.565175 47.7135 1.26087 47.7135H13.8696C14.5653 47.7135 15.1304 47.1525 15.1304 46.4578V45.2022H21.1374L25.9149 47.5816C26.0885 47.6681 26.2831 47.7135 26.4783 47.7135H50.4348C53.2163 47.7135 55.4783 45.4609 55.4783 42.691C55.4783 41.6499 55.1581 40.6819 54.612 39.8799C56.5778 39.1927 58 37.3473 58 35.1573C58 33.6491 57.3166 32.3119 56.2577 31.3904C57.3166 30.4689 58 29.1318 58 27.6236C58 26.1154 57.3166 24.7782 56.2577 23.8567C57.3166 22.9352 58 21.5981 58 20.0899ZM12.6087 45.2022H2.52174V17.5786H12.6087V45.2022ZM52.9565 25.1123C54.3473 25.1123 55.4783 26.2386 55.4783 27.6236C55.4783 29.0086 54.3473 30.1348 52.9565 30.1348H45.3913V32.646H52.9565C54.3473 32.646 55.4783 33.7723 55.4783 35.1573C55.4783 36.5423 54.3473 37.6685 52.9565 37.6685H45.3913V40.1797H50.4348C51.8256 40.1797 52.9565 41.306 52.9565 42.691C52.9565 44.076 51.8256 45.2022 50.4348 45.2022H26.7756L21.9981 42.8228C21.8245 42.7364 21.6299 42.691 21.4348 42.691H15.1304V20.0899H22.6957C23.03 20.0899 23.3513 19.9581 23.5871 19.722L26.1089 17.2108C26.3459 16.976 26.4783 16.6572 26.4783 16.323V2.51123H27.2577C28.6294 2.51123 29.8625 3.26963 30.4763 4.49275C31.1597 5.85505 31.5217 7.3792 31.5217 8.90213V16.323C31.5217 17.0177 32.0869 17.5786 32.7826 17.5786H52.9565C54.3473 17.5786 55.4783 18.7049 55.4783 20.0899C55.4783 21.4749 54.3473 22.6011 52.9565 22.6011H45.3913V25.1123H52.9565Z" fill="#272727"/>
</svg>
