<svg width="59" height="59" viewBox="0 0 59 59" fill="none" xmlns="http://www.w3.org/2000/svg">
<g clip-path="url(#clip0_183_133)">
<path d="M49.335 28.2254C48.6058 28.2254 48.0093 28.822 48.0093 29.5512C48.0093 30.2804 48.6058 30.8769 49.335 30.8769C50.0642 30.8769 50.6608 30.2804 50.6608 29.5512C50.6608 28.822 50.0642 28.2254 49.335 28.2254ZM20.1683 45.6194C19.532 45.2482 18.7233 45.4735 18.3521 46.1099C17.9808 46.7463 18.2062 47.555 18.8426 47.9262C19.479 48.2974 20.2877 48.072 20.6589 47.4357C21.0168 46.7993 20.8047 45.9906 20.1683 45.6194ZM11.5642 38.341C10.9278 38.7122 10.7157 39.5209 11.0736 40.1572C11.4449 40.7936 12.2536 41.0057 12.8899 40.6478C13.5263 40.2766 13.7384 39.4679 13.3805 38.8315C13.0093 38.1951 12.2005 37.983 11.5642 38.341ZM18.8426 11.1762C18.2062 11.5474 17.9941 12.3561 18.3521 12.9925C18.7233 13.6288 19.532 13.841 20.1683 13.483C20.8047 13.1118 21.0168 12.3031 20.6589 11.6667C20.2877 11.0304 19.479 10.8182 18.8426 11.1762ZM9.56228 28.2254C8.83312 28.2254 8.23653 28.822 8.23653 29.5512C8.23653 30.2804 8.83312 30.8769 9.56228 30.8769C10.2915 30.8769 10.888 30.2804 10.888 29.5512C10.888 28.822 10.2915 28.2254 9.56228 28.2254ZM38.729 13.483C39.3653 13.8542 40.174 13.6288 40.5452 12.9925C40.9165 12.3561 40.6911 11.5474 40.0547 11.1762C39.4183 10.805 38.6096 11.0304 38.2384 11.6667C37.8805 12.3031 38.0926 13.1118 38.729 13.483ZM12.8899 18.4546C12.2536 18.0966 11.4449 18.3088 11.0736 18.9451C10.7024 19.5815 10.9278 20.3902 11.5642 20.7614C12.2005 21.1194 13.0093 20.9072 13.3805 20.2709C13.7384 19.6345 13.5263 18.8258 12.8899 18.4546ZM47.3331 38.341C46.6968 37.9697 45.888 38.1951 45.5168 38.8315C45.1456 39.4679 45.371 40.2766 46.0074 40.6478C46.6437 41.019 47.4524 40.7936 47.8236 40.1572C48.1816 39.5209 47.9695 38.7122 47.3331 38.341ZM29.4486 48.1118C28.7195 48.1118 28.1229 48.7084 28.1229 49.4375C28.1229 50.1667 28.7195 50.7633 29.4486 50.7633C30.1778 50.7633 30.7744 50.1667 30.7744 49.4375C30.7744 48.7084 30.1778 48.1118 29.4486 48.1118ZM46.0074 18.4546C45.371 18.8258 45.1589 19.6345 45.5168 20.2709C45.888 20.9072 46.6968 21.1194 47.3331 20.7614C47.9695 20.3902 48.1816 19.5815 47.8236 18.9451C47.4524 18.3088 46.6437 18.0966 46.0074 18.4546ZM41.3805 28.2254H34.5661C34.0888 26.3694 32.6305 24.911 30.7744 24.4338V9.66482C30.7744 8.93566 30.1778 8.33907 29.4486 8.33907C28.7195 8.33907 28.1229 8.93566 28.1229 9.66482V24.4338C25.8426 25.0304 24.1456 27.0853 24.1456 29.5512C24.1456 32.4811 26.5187 34.8542 29.4486 34.8542C31.9146 34.8542 33.9695 33.1572 34.5661 30.8769H41.3805C42.1096 30.8769 42.7062 30.2804 42.7062 29.5512C42.7062 28.822 42.1096 28.2254 41.3805 28.2254ZM29.4486 32.2027C27.9903 32.2027 26.7971 31.0095 26.7971 29.5512C26.7971 28.0929 27.9903 26.8997 29.4486 26.8997C30.907 26.8997 32.1002 28.0929 32.1002 29.5512C32.1002 31.0095 30.907 32.2027 29.4486 32.2027ZM38.729 45.6194C38.0926 45.9906 37.8805 46.7993 38.2384 47.4357C38.6096 48.072 39.4183 48.2841 40.0547 47.9262C40.6911 47.555 40.9032 46.7463 40.5452 46.1099C40.174 45.4735 39.3653 45.2614 38.729 45.6194ZM29.4486 0.384521C13.3407 0.384521 0.281982 13.4432 0.281982 29.5512C0.281982 45.6591 13.3407 58.7178 29.4486 58.7178C45.5566 58.7178 58.6153 45.6591 58.6153 29.5512C58.6153 13.4432 45.5566 0.384521 29.4486 0.384521ZM29.4486 56.0663C14.799 56.0663 2.9335 44.2008 2.9335 29.5512C2.9335 14.9016 14.799 3.03604 29.4486 3.03604C44.0983 3.03604 55.9638 14.9016 55.9638 29.5512C55.9638 44.2008 44.0983 56.0663 29.4486 56.0663Z" fill="#272727"/>
</g>
<defs>
<clipPath id="clip0_183_133">
<rect width="58.3333" height="58.3333" fill="white" transform="translate(0.281982 0.384521)"/>
</clipPath>
</defs>
</svg>
