<svg width="58" height="57" viewBox="0 0 58 57" fill="none" xmlns="http://www.w3.org/2000/svg">
<g clip-path="url(#clip0_183_165)">
<path d="M21.0909 38.2272H36.9091C38.3591 38.2272 39.5455 37.0408 39.5455 35.5908V32.9545C39.5455 31.5045 38.3591 30.3181 36.9091 30.3181H21.0909C19.6409 30.3181 18.4545 31.4913 18.4545 32.9545V35.5908C18.4545 37.0408 19.6409 38.2272 21.0909 38.2272ZM21.0909 32.9545H36.9091V35.5908H21.0909V32.9545ZM55.3636 14.4999H50.1568L48.5486 8.51538C47.7973 5.70766 44.8973 4.03356 42.0895 4.78493L34.0223 6.94675L23.2132 0.698564C20.6955 -0.751436 17.4659 0.118565 16.0027 2.63629L9.14818 14.4999H2.63636C1.18636 14.4999 0 15.6863 0 17.1363V22.409C0 23.8722 1.18636 25.0454 2.63636 25.0454H5.27273V54.0454C5.27273 55.4954 6.45909 56.6817 7.90909 56.6817H50.0909C51.5409 56.6817 52.7273 55.4954 52.7273 54.0454V25.0454H55.3636C56.8136 25.0454 58 23.8722 58 22.409V17.1363C58 15.6731 56.8136 14.4999 55.3636 14.4999ZM42.775 7.32902C44.1855 6.94675 45.6223 7.79038 46.0046 9.18766L47.4282 14.4999H47.0986L43.7109 12.549L44.1459 12.4304L43.4605 9.88629L40.9164 10.5717L41.035 11.0067L37.8055 9.14811L37.6868 8.69993L42.775 7.32902ZM41.8259 14.4999H24.3864L28.7495 6.94675L41.8259 14.4999ZM18.2964 3.95447C19.0214 2.68902 20.6427 2.2672 21.895 2.9922L26.4559 5.62856L21.3414 14.4999H15.4623L15.3041 14.4077L15.2514 14.4999H12.2064L18.2964 3.95447ZM50.0909 54.0454H7.90909V25.0454H50.0909V54.0454ZM55.3636 22.409H2.63636V17.1363H55.3636V22.409ZM22.8573 6.59084L20.5768 5.27266L19.2586 7.55311L21.5391 8.87129L22.8573 6.59084ZM20.2209 11.1517L17.9405 9.83356L16.6223 12.114L18.9027 13.4322L20.2209 11.1517Z" fill="#272727"/>
</g>
<defs>
<clipPath id="clip0_183_165">
<rect width="58" height="56.6818" fill="white"/>
</clipPath>
</defs>
</svg>
