<svg width="59" height="59" viewBox="0 0 59 59" fill="none" xmlns="http://www.w3.org/2000/svg">
<path d="M15.2501 44.032L26.5721 42.0964L57.0645 11.604C58.2577 10.3975 59.0001 8.74032 59.0001 6.91077C59.0001 3.25168 56.0304 0.281982 52.3713 0.281982C50.5417 0.281982 48.8845 1.02441 47.6781 2.21759L17.1857 32.71L15.2501 44.032ZM49.5607 4.10016C50.2766 3.38426 51.2709 2.9335 52.3713 2.9335C54.572 2.9335 56.3486 4.71001 56.3486 6.91077C56.3486 8.01115 55.8978 9.00547 55.1819 9.72138L53.4717 11.4316L47.8505 5.81039L49.5607 4.10016ZM45.9679 7.69297L51.5891 13.3142L27.1819 37.7214V32.1002H21.5607L45.9679 7.69297ZM19.5853 34.7517H24.5304V39.6968L18.5645 40.7176L19.5853 34.7517ZM57.6743 20.1683C56.9452 20.1683 56.3486 20.7649 56.3486 21.4941V50.6608C56.3486 53.5907 53.9755 55.9638 51.0455 55.9638H8.62129C5.69137 55.9638 3.31826 53.5907 3.31826 50.6608V8.23653C3.31826 5.3066 5.69137 2.9335 8.62129 2.9335H37.788C38.5171 2.9335 39.1137 2.33691 39.1137 1.60774C39.1137 0.878573 38.5171 0.281982 37.788 0.281982H8.62129C4.23304 0.281982 0.666748 3.84827 0.666748 8.23653V50.6608C0.666748 55.049 4.23304 58.6153 8.62129 58.6153H51.0455C55.4338 58.6153 59.0001 55.049 59.0001 50.6608V21.4941C59.0001 20.7649 58.4035 20.1683 57.6743 20.1683Z" fill="#272727"/>
</svg>
