<svg width="22" height="22" viewBox="0 0 22 22" fill="none" xmlns="http://www.w3.org/2000/svg">
<g clip-path="url(#clip0_96_904)">
<path d="M10.7886 22C4.8398 22 0 17.0658 0 11.0006C0 4.93479 4.8398 0 10.7886 0C13.1539 0 15.4127 0.777913 17.3208 2.24994C17.6923 2.53625 17.7699 3.08149 17.4943 3.46751C17.2193 3.85325 16.695 3.93482 16.3235 3.64823C14.7061 2.4005 12.7921 1.74102 10.7886 1.74102C5.76295 1.74102 1.67415 5.89482 1.67415 11.0003C1.67415 16.1055 5.76295 20.259 10.7886 20.259C15.8145 20.259 19.9034 16.1055 19.9034 11.0003C19.9034 10.2852 19.8268 9.58998 19.6761 8.93357C19.569 8.46599 19.8464 7.99644 20.296 7.88472C20.7441 7.77299 21.1969 8.06153 21.3046 8.52939C21.4856 9.3182 21.5775 10.1495 21.5775 11.0006C21.5772 17.0658 16.7377 22 10.7886 22Z" fill="url(#paint0_linear_96_904)"/>
<path d="M10.7886 22C4.8398 22 0 17.0658 0 11.0006C0 4.93479 4.8398 0 10.7886 0C13.1539 0 15.4127 0.777913 17.3208 2.24994C17.6923 2.53625 17.7699 3.08149 17.4943 3.46751C17.2193 3.85325 16.695 3.93482 16.3235 3.64823C14.7061 2.4005 12.7921 1.74102 10.7886 1.74102C5.76295 1.74102 1.67415 5.89482 1.67415 11.0003C1.67415 16.1055 5.76295 20.259 10.7886 20.259C15.8145 20.259 19.9034 16.1055 19.9034 11.0003C19.9034 10.2852 19.8268 9.58998 19.6761 8.93357C19.569 8.46599 19.8464 7.99644 20.296 7.88472C20.7441 7.77299 21.1969 8.06153 21.3046 8.52939C21.4856 9.3182 21.5775 10.1495 21.5775 11.0006C21.5772 17.0658 16.7377 22 10.7886 22Z" fill="url(#paint1_linear_96_904)"/>
<path d="M10.5779 16.2743C10.3564 16.2743 10.1434 16.1829 9.98596 16.0195L4.26786 10.0736C3.94099 9.73366 3.94099 9.18256 4.26786 8.84262C4.59474 8.50269 5.12468 8.50241 5.45156 8.84262C8.18146 11.6813 12.7627 11.5519 15.3281 8.56365L20.5393 2.49334C20.8474 2.13469 21.3768 2.10369 21.7211 2.42379C22.066 2.74389 22.0961 3.29416 21.7883 3.65281L11.2024 15.9835C11.0491 16.1623 10.8318 16.2673 10.6019 16.274C10.5935 16.2743 10.5857 16.2743 10.5779 16.2743Z" fill="url(#paint2_linear_96_904)"/>
<path d="M10.5779 16.2743C10.3564 16.2743 10.1434 16.1829 9.98596 16.0195L4.26786 10.0736C3.94099 9.73366 3.94099 9.18256 4.26786 8.84262C4.59474 8.50269 5.12468 8.50241 5.45156 8.84262C8.18146 11.6813 12.7627 11.5519 15.3281 8.56365L20.5393 2.49334C20.8474 2.13469 21.3768 2.10369 21.7211 2.42379C22.066 2.74389 22.0961 3.29416 21.7883 3.65281L11.2024 15.9835C11.0491 16.1623 10.8318 16.2673 10.6019 16.274C10.5935 16.2743 10.5857 16.2743 10.5779 16.2743Z" fill="url(#paint3_linear_96_904)"/>
</g>
<defs>
<linearGradient id="paint0_linear_96_904" x1="10.7888" y1="0" x2="10.7888" y2="22" gradientUnits="userSpaceOnUse">
<stop stop-color="#FF0701"/>
<stop offset="1" stop-color="#FF0701"/>
</linearGradient>
<linearGradient id="paint1_linear_96_904" x1="10.7888" y1="0" x2="10.7888" y2="22" gradientUnits="userSpaceOnUse">
<stop stop-color="#FF0701"/>
<stop offset="1" stop-color="#FF0701"/>
</linearGradient>
<linearGradient id="paint2_linear_96_904" x1="13.0118" y1="2.20264" x2="13.0118" y2="16.2743" gradientUnits="userSpaceOnUse">
<stop stop-color="#FF0701"/>
<stop offset="1" stop-color="#FF0701"/>
</linearGradient>
<linearGradient id="paint3_linear_96_904" x1="13.0118" y1="2.20264" x2="13.0118" y2="16.2743" gradientUnits="userSpaceOnUse">
<stop stop-color="#FF0701"/>
<stop offset="1" stop-color="#FF0701"/>
</linearGradient>
<clipPath id="clip0_96_904">
<rect width="22" height="22" fill="white"/>
</clipPath>
</defs>
</svg>
