<svg width="45" height="57" viewBox="0 0 45 57" fill="none" xmlns="http://www.w3.org/2000/svg">
<path d="M29.36 22.8C34.2667 23.6 38.0267 25.44 40.64 28.32C43.2533 31.1467 44.56 34.6667 44.56 38.88C44.56 42.1333 43.7067 45.1467 42 47.92C40.2933 50.64 37.68 52.8267 34.16 54.48C30.6933 56.1333 26.4267 56.96 21.36 56.96C17.4133 56.96 13.52 56.4533 9.68 55.44C5.89333 54.3733 2.66667 52.88 0 50.96L5.04 41.04C7.17333 42.64 9.62667 43.8933 12.4 44.8C15.2267 45.6533 18.1067 46.08 21.04 46.08C24.2933 46.08 26.8533 45.4667 28.72 44.24C30.5867 42.96 31.52 41.1733 31.52 38.88C31.52 34.2933 28.0267 32 21.04 32H15.12V23.44L26.64 10.4H2.8V0H42V8.4L29.36 22.8Z" fill="#D2D6DC"/>
</svg>
