<svg width="45" height="57" viewBox="0 0 45 57" fill="none" xmlns="http://www.w3.org/2000/svg">
<path d="M44.88 46.4V56.96H2.56V48.56L24.16 28.16C26.4533 25.9733 28 24.1067 28.8 22.56C29.6 20.96 30 19.3867 30 17.84C30 15.6 29.2267 13.8933 27.68 12.72C26.1867 11.4933 23.9733 10.88 21.04 10.88C18.5867 10.88 16.3733 11.36 14.4 12.32C12.4267 13.2267 10.7733 14.6133 9.44 16.48L0 10.4C2.18667 7.14667 5.2 4.61333 9.04 2.8C12.88 0.933332 17.28 0 22.24 0C26.4 0 30.0267 0.693331 33.12 2.08C36.2667 3.41333 38.6933 5.33333 40.4 7.84C42.16 10.2933 43.04 13.2 43.04 16.56C43.04 19.6 42.4 22.4533 41.12 25.12C39.84 27.7867 37.36 30.8267 33.68 34.24L20.8 46.4H44.88Z" fill="#D2D6DC"/>
</svg>
