<svg width="65" height="60" viewBox="0 0 65 60" fill="none" xmlns="http://www.w3.org/2000/svg">
<path d="M54.3119 43.1952C54.3119 43.1952 48.8422 41.9239 48.8422 36.3952C48.8422 31.5316 51.4588 29.8168 52.331 28.6342C52.331 28.6342 54.1197 27.1264 52.9223 22.2333C54.9179 19.5576 55.3762 14.8271 53.2179 9.81575C51.8579 6.66702 50.2023 4.95222 48.3692 3.947C47.0092 3.22264 45.4865 2.95655 44.0083 2.95655C41.7909 2.95655 39.6917 3.56264 38.4056 4.13917C38.79 4.87831 39.1447 5.64701 39.4995 6.47485C39.5439 6.59311 39.5882 6.71137 39.6326 6.82963C40.4604 6.46007 42.1456 5.9131 44.0083 5.9131C45.1761 5.9131 46.1518 6.13485 46.9353 6.56355C47.8518 7.06616 49.2266 8.07139 50.4831 11.0132C52.2866 15.1819 51.7988 18.7741 50.5275 20.4889C49.9953 21.1985 49.8179 22.1002 50.0249 22.9576C50.6162 25.4116 50.2318 26.4316 50.1431 26.6385C50.0692 26.7272 49.9953 26.8159 49.9214 26.9046C49.8622 26.9785 49.6553 27.2003 49.5075 27.3629C48.2361 28.7377 45.8561 31.2803 45.8561 36.4099C45.8561 42.5152 50.7197 45.3535 53.4397 46.0483C57.3423 47.4083 61.1267 49.1083 61.9102 53.2475H52.5527C52.8188 54.164 53.011 55.1397 53.0997 56.2041H63.6546C64.9998 56.2041 64.9998 54.8736 64.9998 54.8736C65.0441 46.8761 57.7858 44.4074 54.3119 43.1952ZM38.4943 44.7031C38.4943 44.7031 32.4925 43.2987 32.4925 37.1491C32.4925 31.7534 34.9612 29.8464 35.9073 28.5307C35.9073 28.5307 37.8587 26.8455 36.5578 21.4202C38.7456 18.4489 39.1447 13.201 36.7795 7.6279C35.2864 4.13917 33.9708 2.21741 31.9751 1.10871C30.482 0.310438 28.8116 0 27.1855 0C24.155 0 21.2872 1.04958 20.1341 1.78871C16.7784 3.26699 14.5315 4.627 12.4175 9.80097C10.7027 13.9993 12.7723 18.8628 13.8367 21.2428C12.521 26.6681 14.3393 28.5307 14.3393 28.5307C15.2854 29.8464 17.7541 31.7534 17.7541 37.1491C17.7541 43.2987 11.7523 44.7031 11.7523 44.7031C7.95312 46.0483 0 48.7979 0 57.6675C0 57.6675 0 59.1458 1.47828 59.1458H48.7831C50.2614 59.1458 50.2614 57.6675 50.2614 57.6675C50.2614 48.7979 42.3083 46.0483 38.4943 44.7031ZM3.06003 56.1893C3.78439 51.1336 8.29313 49.0788 12.6245 47.5414C15.5367 46.7874 20.7402 43.7422 20.7402 37.1491C20.7402 31.5168 18.4193 28.7673 17.1628 27.289C17.0002 27.1116 16.8671 26.949 16.7489 26.7864C16.7193 26.742 16.675 26.6977 16.6454 26.6533C16.5419 26.4464 15.9506 25.1307 16.7193 21.9376C16.8671 21.302 16.808 20.622 16.5419 20.0306C15.8028 18.4193 13.8662 14.1175 15.1671 10.9245C16.9263 6.60789 18.4932 5.75049 21.3463 4.50874C21.4941 4.44961 21.6272 4.3757 21.7602 4.287C22.455 3.81395 24.7907 2.95655 27.1855 2.95655C28.5012 2.95655 29.6246 3.20786 30.5264 3.71047C31.5908 4.30178 32.596 5.39571 34.0447 8.79574C36.0995 13.6149 35.5821 17.7393 34.163 19.6759C33.6456 20.3706 33.4682 21.2724 33.6751 22.115C34.3995 25.0863 33.8673 26.2837 33.749 26.4907C33.6603 26.5794 33.5864 26.6829 33.4977 26.7864C33.3795 26.9342 33.2464 27.0968 33.0838 27.289C31.8421 28.7673 29.5064 31.5021 29.5064 37.1491C29.5064 43.7274 34.7099 46.7874 37.6221 47.5414C41.9091 49.064 46.4474 51.1188 47.1866 56.1893H3.06003Z" fill="#272727"/>
</svg>
