<svg width="60" height="50" viewBox="0 0 60 50" fill="none" xmlns="http://www.w3.org/2000/svg">
<g clip-path="url(#clip0_151_1788)">
<path d="M12.2727 2.72727H47.7273C48.4773 2.72727 49.0909 2.11364 49.0909 1.36364C49.0909 0.613636 48.4773 0 47.7273 0H12.2727C11.5227 0 10.9091 0.613636 10.9091 1.36364C10.9091 2.11364 11.5227 2.72727 12.2727 2.72727ZM57.2727 10.9091H2.72727C1.22727 10.9091 0 12.1364 0 13.6364V46.3636C0 47.8636 1.22727 49.0909 2.72727 49.0909H57.2727C58.7727 49.0909 60 47.8636 60 46.3636V13.6364C60 12.1364 58.7727 10.9091 57.2727 10.9091ZM57.2727 46.3636H2.72727V13.6364H57.2727V46.3636ZM6.81818 8.18182H53.1818C53.9318 8.18182 54.5455 7.56818 54.5455 6.81818C54.5455 6.06818 53.9318 5.45455 53.1818 5.45455H6.81818C6.06818 5.45455 5.45455 6.06818 5.45455 6.81818C5.45455 7.56818 6.06818 8.18182 6.81818 8.18182Z" fill="#272727"/>
</g>
<defs>
<clipPath id="clip0_151_1788">
<rect width="60" height="49.0909" fill="white"/>
</clipPath>
</defs>
</svg>
