<svg width="60" height="60" viewBox="0 0 60 60" fill="none" xmlns="http://www.w3.org/2000/svg">
<g clip-path="url(#clip0_151_1782)">
<path d="M17.7394 8.21469C12.4585 8.21469 8.1874 12.4858 8.1874 17.7667C8.1874 23.0475 12.4585 27.3186 17.7394 27.3186C23.0202 27.3186 27.2913 23.0475 27.2913 17.7667C27.2913 12.4858 23.0202 8.21469 17.7394 8.21469ZM17.7394 24.5622C13.9732 24.5622 10.9165 21.5056 10.9165 17.7394C10.9165 13.9732 13.9732 10.9165 17.7394 10.9165C21.5056 10.9165 24.5622 13.9732 24.5622 17.7394C24.5622 21.5056 21.5056 24.5622 17.7394 24.5622ZM43.9118 29.9932C44.1301 30.116 44.3757 30.1842 44.6077 30.1842C45.0716 30.1842 45.5356 29.9522 45.7812 29.5156C46.1906 28.8196 46.6955 28.1101 47.3095 27.3869C47.8008 26.8137 47.7189 25.9541 47.1458 25.4628C46.5727 24.9716 45.713 25.0534 45.2217 25.6266C44.5258 26.4589 43.9254 27.2913 43.4342 28.1101C43.0521 28.7787 43.2704 29.6111 43.9118 29.9932ZM19.063 50.5026C19.0494 49.7657 18.4489 49.1517 17.6984 49.1517C16.9479 49.1517 16.3339 49.7657 16.3339 50.5163C16.3339 50.6391 16.3475 51.335 16.7159 52.3175C16.9206 52.8633 17.4392 53.2045 17.9986 53.2045C18.1624 53.2045 18.3125 53.1772 18.4762 53.1226C19.1858 52.8633 19.5406 52.0719 19.2813 51.3623C19.0903 50.8847 19.063 50.5435 19.063 50.5026ZM32.7496 57.2845C31.8081 57.2299 30.8801 57.1617 30.0205 57.0525C29.27 56.9434 28.5877 57.4892 28.4922 58.2397C28.3966 58.9902 28.9288 59.6725 29.6793 59.768C30.6072 59.8772 31.5897 59.9727 32.5995 60.0273C32.6268 60.0273 32.6541 60.0273 32.6677 60.0273C33.391 60.0273 33.9914 59.4678 34.0323 58.731C34.0732 57.9531 33.5001 57.3118 32.7496 57.2845ZM24.7805 55.8654C23.9072 55.5515 23.1294 55.1967 22.4335 54.7874C21.7785 54.4053 20.9461 54.6236 20.564 55.2786C20.1819 55.9336 20.4003 56.766 21.0553 57.1481C21.8877 57.6393 22.8292 58.076 23.8526 58.4444C24.0027 58.499 24.1665 58.5263 24.3166 58.5263C24.8761 58.5263 25.3946 58.1851 25.5993 57.6257C25.8585 56.9024 25.4901 56.111 24.7805 55.8654ZM40.9779 56.9843C40.1046 57.1071 39.1904 57.2026 38.2625 57.2572C37.5119 57.3118 36.9388 57.9531 36.9934 58.7037C37.0343 59.4269 37.6348 59.9864 38.358 59.9864C38.3853 59.9864 38.4126 59.9864 38.4535 59.9864C39.4633 59.9181 40.4458 59.8226 41.3737 59.6861C42.1242 59.577 42.6427 58.8947 42.5335 58.1442C42.4107 57.3937 41.7285 56.8751 40.9779 56.9843ZM51.799 19.7453C51.0348 20.2911 50.257 20.8915 49.4792 21.5192C48.8924 21.9968 48.8106 22.8565 49.2882 23.4433C49.5611 23.7708 49.9568 23.9481 50.3525 23.9481C50.6527 23.9481 50.9666 23.8526 51.2122 23.6479C51.9491 23.0475 52.6859 22.4881 53.4091 21.9695C54.0232 21.5329 54.1597 20.6732 53.723 20.0728C53.2727 19.4451 52.413 19.3086 51.799 19.7453ZM52.0036 46.9138C51.2668 47.0639 50.7892 47.7871 50.9393 48.524C51.0348 48.9607 51.0757 49.3973 51.0757 49.8067C51.0757 50.1478 51.0484 50.4753 50.9802 50.8028C50.8301 51.5397 51.3214 52.2629 52.0582 52.3994C52.1401 52.413 52.2356 52.4266 52.3175 52.4266C52.9588 52.4266 53.532 51.9763 53.6548 51.3214C53.7503 50.8301 53.8049 50.3252 53.8049 49.8067C53.8049 49.2063 53.7366 48.5922 53.6138 47.9645C53.4501 47.2277 52.7269 46.7637 52.0036 46.9138ZM59.8499 16.4703C59.5088 15.8017 58.6764 15.5424 58.0077 15.8836C58.0077 15.8836 57.5438 16.1292 56.766 16.5658C56.111 16.9343 55.879 17.7667 56.2611 18.4217C56.5067 18.8583 56.9707 19.1039 57.4483 19.1039C57.6802 19.1039 57.9122 19.0494 58.1169 18.9265C58.8128 18.5308 59.2495 18.3125 59.2631 18.2988C59.9318 17.9577 60.191 17.139 59.8499 16.4703ZM50.8574 42.3698C50.2843 41.6193 49.6156 40.8551 48.8788 40.1046C48.3466 39.5724 47.4733 39.5724 46.9411 40.091C46.4089 40.6231 46.3953 41.4828 46.9275 42.0287C47.5824 42.6973 48.1692 43.3659 48.6877 44.0346C48.9607 44.3894 49.3564 44.5667 49.7794 44.5667C50.066 44.5667 50.3662 44.4712 50.6118 44.2802C51.1985 43.8299 51.3077 42.9702 50.8574 42.3698ZM45.2763 36.2292C44.8806 35.5333 44.6486 34.8101 44.5668 34.0732C44.4849 33.3227 43.8299 32.7769 43.0657 32.8588C42.3152 32.9406 41.7694 33.6093 41.8513 34.3598C41.9741 35.4651 42.3152 36.5431 42.8883 37.5529C43.134 38.0032 43.5979 38.2488 44.0755 38.2488C44.3075 38.2488 44.5258 38.1942 44.7441 38.0714C45.4128 37.7166 45.6448 36.8842 45.2763 36.2292ZM48.3739 54.4599C47.7325 54.9102 46.982 55.3059 46.136 55.6607C45.4401 55.9472 45.1126 56.7387 45.3991 57.4483C45.6175 57.9804 46.1224 58.2943 46.6545 58.2943C46.8319 58.2943 47.0093 58.267 47.1731 58.1851C48.1965 57.7621 49.1244 57.2709 49.9295 56.7114C50.5436 56.2747 50.7073 55.4287 50.2706 54.8146C49.834 54.1869 48.9879 54.0368 48.3739 54.4599ZM17.7394 0C7.94178 0 0 7.99636 0 17.8622C0 32.3812 17.7394 46.3953 17.7394 46.3953C17.7394 46.3953 35.4787 32.3812 35.4787 17.8622C35.4787 7.99636 27.537 0 17.7394 0ZM17.7394 42.8065C16.1155 41.36 13.5365 38.9038 10.9711 35.8199C7.20491 31.3168 2.72913 24.5486 2.72913 17.8622C2.72913 9.52468 9.45645 2.72913 17.7394 2.72913C26.0223 2.72913 32.7496 9.52468 32.7496 17.8622C32.7496 28.3557 21.9832 39.013 17.7394 42.8065Z" fill="#272727"/>
</g>
<defs>
<clipPath id="clip0_151_1782">
<rect width="60" height="60" fill="white"/>
</clipPath>
</defs>
</svg>
