<svg width="65" height="54" viewBox="0 0 65 54" fill="none" xmlns="http://www.w3.org/2000/svg">
<path d="M62.0455 0H2.95455C1.32955 0 0 1.32955 0 2.95455V8.86364C0 10.5034 1.32955 11.8182 2.95455 11.8182H5.90909V50.2273C5.90909 51.8523 7.23864 53.1818 8.86364 53.1818H56.1364C57.7614 53.1818 59.0909 51.8523 59.0909 50.2273V11.8182H62.0455C63.6705 11.8182 65 10.5034 65 8.86364V2.95455C65 1.32955 63.6705 0 62.0455 0ZM56.1364 50.2273H8.86364V11.8182H56.1364V50.2273ZM62.0455 8.86364H2.95455V2.95455H62.0455V8.86364ZM23.6364 26.5909H41.3636C42.9886 26.5909 44.3182 25.2614 44.3182 23.6364V20.6818C44.3182 19.0568 42.9886 17.7273 41.3636 17.7273H23.6364C22.0114 17.7273 20.6818 19.0568 20.6818 20.6818V23.6364C20.6818 25.2614 22.0114 26.5909 23.6364 26.5909ZM23.6364 20.6818H41.3636V23.6364H23.6364V20.6818Z" fill="#272727"/>
</svg>
