<svg width="65" height="49" viewBox="0 0 65 49" fill="none" xmlns="http://www.w3.org/2000/svg">
<g clip-path="url(#clip0_184_162)">
<path d="M13.2955 12.6818H10.3409C9.52841 12.6818 8.86364 13.3466 8.86364 14.1591C8.86364 14.9716 9.52841 15.6364 10.3409 15.6364H13.2955C14.108 15.6364 14.7727 14.9716 14.7727 14.1591C14.7727 13.3466 14.108 12.6818 13.2955 12.6818ZM22.1591 12.6818H19.2045C18.392 12.6818 17.7273 13.3466 17.7273 14.1591C17.7273 14.9716 18.392 15.6364 19.2045 15.6364H22.1591C22.9716 15.6364 23.6364 14.9716 23.6364 14.1591C23.6364 13.3466 22.9716 12.6818 22.1591 12.6818ZM22.1591 39.2727H19.2045C18.392 39.2727 17.7273 39.9375 17.7273 40.75C17.7273 41.5625 18.392 42.2273 19.2045 42.2273H22.1591C22.9716 42.2273 23.6364 41.5625 23.6364 40.75C23.6364 39.9375 22.9716 39.2727 22.1591 39.2727ZM51.7045 25.9773C50.892 25.9773 50.2273 26.6421 50.2273 27.4546C50.2273 28.2671 50.892 28.9318 51.7045 28.9318C52.517 28.9318 53.1818 28.2671 53.1818 27.4546C53.1818 26.6421 52.517 25.9773 51.7045 25.9773ZM59.0909 18.5909V6.77274C59.0909 3.50797 56.4466 0.863647 53.1818 0.863647H5.90909C2.64432 0.863647 0 3.50797 0 6.77274V42.2273C0 45.4921 2.64432 48.1364 5.90909 48.1364H53.1818C56.4466 48.1364 59.0909 45.4921 59.0909 42.2273V36.3182C62.3557 36.3182 65 33.6739 65 30.4091V24.5C65 21.2352 62.3557 18.5909 59.0909 18.5909ZM2.95455 6.77274C2.95455 5.14774 4.28409 3.81819 5.90909 3.81819H53.1818C54.8068 3.81819 56.1364 5.14774 56.1364 6.77274V7.58524C55.2648 7.08297 54.2602 6.77274 53.1818 6.77274H5.90909C4.83068 6.77274 3.82614 7.08297 2.95455 7.58524V6.77274ZM56.1364 42.2273C56.1364 43.8523 54.8068 45.1818 53.1818 45.1818H5.90909C4.28409 45.1818 2.95455 43.8523 2.95455 42.2273V12.6818C2.95455 11.0568 4.28409 9.72728 5.90909 9.72728H53.1818C54.8068 9.72728 56.1364 11.0568 56.1364 12.6818V18.5909H50.2273C46.9625 18.5909 44.3182 21.2352 44.3182 24.5V30.4091C44.3182 33.6739 46.9625 36.3182 50.2273 36.3182H56.1364V42.2273ZM62.0455 30.4091C62.0455 32.0341 60.7159 33.3636 59.0909 33.3636H50.2273C48.6023 33.3636 47.2727 32.0341 47.2727 30.4091V24.5C47.2727 22.875 48.6023 21.5455 50.2273 21.5455H59.0909C60.7159 21.5455 62.0455 22.875 62.0455 24.5V30.4091ZM45.7955 15.6364H48.75C49.5625 15.6364 50.2273 14.9716 50.2273 14.1591C50.2273 13.3466 49.5625 12.6818 48.75 12.6818H45.7955C44.983 12.6818 44.3182 13.3466 44.3182 14.1591C44.3182 14.9716 44.983 15.6364 45.7955 15.6364ZM13.2955 39.2727H10.3409C9.52841 39.2727 8.86364 39.9375 8.86364 40.75C8.86364 41.5625 9.52841 42.2273 10.3409 42.2273H13.2955C14.108 42.2273 14.7727 41.5625 14.7727 40.75C14.7727 39.9375 14.108 39.2727 13.2955 39.2727ZM31.0227 39.2727H28.0682C27.2557 39.2727 26.5909 39.9375 26.5909 40.75C26.5909 41.5625 27.2557 42.2273 28.0682 42.2273H31.0227C31.8352 42.2273 32.5 41.5625 32.5 40.75C32.5 39.9375 31.8352 39.2727 31.0227 39.2727ZM39.8864 12.6818H36.9318C36.1193 12.6818 35.4545 13.3466 35.4545 14.1591C35.4545 14.9716 36.1193 15.6364 36.9318 15.6364H39.8864C40.6989 15.6364 41.3636 14.9716 41.3636 14.1591C41.3636 13.3466 40.6989 12.6818 39.8864 12.6818ZM48.75 39.2727H45.7955C44.983 39.2727 44.3182 39.9375 44.3182 40.75C44.3182 41.5625 44.983 42.2273 45.7955 42.2273H48.75C49.5625 42.2273 50.2273 41.5625 50.2273 40.75C50.2273 39.9375 49.5625 39.2727 48.75 39.2727ZM31.0227 12.6818H28.0682C27.2557 12.6818 26.5909 13.3466 26.5909 14.1591C26.5909 14.9716 27.2557 15.6364 28.0682 15.6364H31.0227C31.8352 15.6364 32.5 14.9716 32.5 14.1591C32.5 13.3466 31.8352 12.6818 31.0227 12.6818ZM39.8864 39.2727H36.9318C36.1193 39.2727 35.4545 39.9375 35.4545 40.75C35.4545 41.5625 36.1193 42.2273 36.9318 42.2273H39.8864C40.6989 42.2273 41.3636 41.5625 41.3636 40.75C41.3636 39.9375 40.6989 39.2727 39.8864 39.2727Z" fill="#272727"/>
</g>
<defs>
<clipPath id="clip0_184_162">
<rect width="65" height="47.2727" fill="white" transform="translate(0 0.863647)"/>
</clipPath>
</defs>
</svg>
